<svg xmlns="http://www.w3.org/2000/svg" viewBox="0 0 2160 2250" width="2160" height="2250"><path fill-rule="evenodd" d="m1673.2 930.6c-455.1-2.8-799.8 176.1-1186.3 389.3-97.2 63.9-279.3-182.7-29.2-362.6 60.9-43.8 146.1-73.7 257.7-111.7-89.3 14.3-178.6 28.6-267.8 42.9-117.2 14.7-167.8-234.7-87.5-323.2 70.4-77.6 213.5-100 314-93.6 97.1 6.3 180.6-23.6 245.9-102 46.3-55.6 84.3-104.7 161.9-112.2 125.6-12 208.9 54.6 254.6 217.2-82 35.6-135.7 96.4-170.3 145.3 72.9-55 159.3-98 214.8-111.7 209.4 99.6 286.2 249.9 292.2 422.3z"/><path fill-rule="evenodd" d="m1674.8 1030.2c-106.3 13.7-218 33.6-332 60.8 85.2 22.5 150.1 97.6 155.5 190.3 6.6 115.3-81.6 214.2-196.9 220.8-115.3 6.6-214.1-81.5-220.7-196.8-3.5-61.1 19.6-117.6 59.2-158.2-245 77.2-492.2 191.1-712.5 354.1-94.9 70.1-119 123.9-40 227.7 25.3 33.3 43.5 59.7 60 90.5 136.4 253.9 164.3 186 403.2 60.3 304.9-160.5 599.4-292.9 945.2-381.6 114.5-29.4 182-96 121.7-220.2-23.1-47.5-38.2-89.2-65.6-151.9-42.6-97.4-68.1-109.9-177.1-95.8z"/></svg>