<svg xmlns="http://www.w3.org/2000/svg" viewBox="0 0 150 153" width="150" height="153"><defs><linearGradient id="P" gradientUnits="userSpaceOnUse"/><radialGradient id="g1" cx="0" cy="0" r="1" href="#P" gradientTransform="matrix(63.713,0,0,63.713,90.221,63.7)"><stop stop-color="#a564fa"/><stop offset=".25" stop-color="#62b7ff"/><stop offset=".42" stop-color="#88ff7f"/><stop offset=".59" stop-color="#fffc36"/><stop offset=".75" stop-color="#ffca78"/><stop offset="1" stop-color="#ff8080"/></radialGradient><radialGradient id="g2" cx="0" cy="0" r="1" href="#P" gradientTransform="matrix(102.668,45.711,-45.711,102.668,93.628,71.048)"><stop stop-color="#a564fa"/><stop offset=".22" stop-color="#62b7ff"/><stop offset=".42" stop-color="#88ff7f"/><stop offset=".65" stop-color="#fffc36"/><stop offset=".81" stop-color="#ffca78"/><stop offset="1" stop-color="#ff8080"/></radialGradient><radialGradient id="g3" cx="0" cy="0" r="1" href="#P" gradientTransform="matrix(68.493,0,0,68.493,140.875,64.224)"><stop stop-color="#a3fff7"/><stop offset="1" stop-color="#2787b2"/></radialGradient><radialGradient id="g4" cx="0" cy="0" r="1" href="#P" gradientTransform="matrix(17.353,0,0,17.353,132.165,31.569)"><stop stop-color="#57538b"/><stop offset="1" stop-color="#44425f"/></radialGradient><radialGradient id="g5" cx="0" cy="0" r="1" href="#P" gradientTransform="matrix(24.47,0,0,24.47,125.236,48.64)"><stop stop-color="#a3e9ff"/><stop offset="1" stop-color="#65c3d5"/></radialGradient><linearGradient id="g6" x2="1" href="#P" gradientTransform="matrix(-1.193,14.754,-4.417,-0.357,99.395,13.309)"><stop stop-color="#80d3e7"/><stop offset="1" stop-color="#5cc9ec"/></linearGradient><radialGradient id="g7" cx="0" cy="0" r="1" href="#P" gradientTransform="matrix(16.71,0,0,16.71,107.346,33.509)"><stop stop-color="#57538b"/><stop offset="1" stop-color="#44425f"/></radialGradient><radialGradient id="g8" cx="0" cy="0" r="1" href="#P" gradientTransform="matrix(133.203,0,0,133.203,91.888,67.122)"><stop stop-color="#a564fa"/><stop offset=".24" stop-color="#62b7ff"/><stop offset=".46" stop-color="#88ff7f"/><stop offset=".61" stop-color="#fffc36"/><stop offset=".75" stop-color="#ffca78"/><stop offset="1" stop-color="#ff8080"/></radialGradient><radialGradient id="g9" cx="0" cy="0" r="1" href="#P" gradientTransform="matrix(141.581,0,0,141.581,90.434,79.048)"><stop stop-color="#a564fa"/><stop offset=".28" stop-color="#62b7ff"/><stop offset=".5" stop-color="#88ff7f"/><stop offset=".65" stop-color="#fffc36"/><stop offset=".77" stop-color="#ffca78"/><stop offset="1" stop-color="#ff8080"/></radialGradient></defs><style>.a{opacity:.4;fill:url(#g1)}.b{opacity:.6;fill:url(#g2)}.c{mix-blend-mode:overlay;fill:#9013fe}.d{fill:url(#g3)}.e{mix-blend-mode:multiply;fill:#53c2e6}.f{fill:#44425f}.g{fill:url(#g4)}.h{fill:#7ad0e3}.i{fill:url(#g5)}.j{fill:url(#g6)}.k{fill:url(#g7)}.l{fill:url(#g8)}.m{fill:url(#g9)}</style><path fill-rule="evenodd" class="a" d="m87.8 0.1q3.6-1.8 8.7 56.2l-10.4 13.6q-5.6-8-8.7-12c-3.2-4-4.3-7.7-3.1-11.6 1.3-3.8 10.5-46.2 13.5-46.2z"/><path fill-rule="evenodd" class="b" d="m92.1 68.2q-25.4-11.8-26.1-11.6c-0.6 0.2 4.3 10 5.1 10.7 0.8 0.6 6.1 2 9.2 3.1q3.1 1.1 9.3 3.3z"/><path fill-rule="evenodd" class="c" d="m86.8 65.6l-15.8-7.2q-4.7-2.1-5.1-1.9c-0.1 0.1 1.1 0.3 3.5 1.3 2.7 1.1 14.7 7.1 15.4 7.6q0.6 0.5 1.4 1.5z"/><path fill-rule="evenodd" class="c" d="m88.2 0c0 0 0.4-0.3 1.6 3.5q0.4 1.2 1.4 6.1 1.9 8.2 2.5 16.2 0.6 7.9 0.6 22.6l-1.8 9q0.5-22.9 0-32.6c-0.3-5.1-1.2-12.8-2.3-18-0.9-4.6-2-6.8-2-6.8z"/><path class="d" d="m111.4 132.2q0.1 0.9 0 0.9-0.9 0-18.6-23.4 0 0 0 0c0 0.1-0.1 0.2-0.2 0.2q-0.1 0-0.2-0.1-14.8-34.5-14.8-38.6 0-2.4 16.3-21.8 0.1-0.1 0.2-0.1l7.7 0.2q0.7 1.3 11.3 0.1c0.2-0.1 0.4 0.1 0.5 0.3q0 0.1-0.1 0.2-11.2 26.5-15.1 36.1 7.1 23.7 10.3 35.5 0.1 0 0.1 0 31.3 21.1 37.8 26.4-0.2 0 1.2-2.3c0.9-1.3 2.6 5.9 2.1 6.3q-0.5 0.4-38.5-19.9z"/><path fill-rule="evenodd" class="e" d="m98.4 86.2l-4.2 9.7-1.3 13.8 7.9 10.5-4.1-6.3q-2-3.5-2.2-4.2-0.1-0.8 0.5-13.5 3.7-9.2 3.6-9.3 0-0.2-0.2-0.7z"/><path fill-rule="evenodd" class="e" d="m108.7 121.6l2.7 10.7 4.5 2.3q-1.9-2-2.6-3.3-0.6-1.3-4.1-9.3z"/><path fill-rule="evenodd" class="e" d="m147.1 147q-0.6 0.9-0.5 1.1c0.1 0.2 1.8 2 1.9 1.8q0.2-0.1-0.6-4.2-0.1 0.1-0.2 0.3-0.2 0.3-0.6 1z"/><path fill-rule="evenodd" class="e" d="m93.4 50l19.6 0.1q-1.7 4.5-2.2 5.2c-0.5 0.6-0.8 1.4-1.6 2.3-1.3 1.6-2.2 2.1-4 2.6-4.2 1.3-11-2.2-12.3-3q-0.9-0.5-3.8-1.9 0.6-0.8 1.3-1.7 0.7-0.8 3-3.6z"/><path fill-rule="evenodd" class="f" d="m109.4 27.1q2.2-0.8 4.9 0c2.6 0.7 8.7 3.3 11.1 4.4 2.3 1.5 1.3 10.6 0.5 18.5q-1.5 3.3-4.3 4.7l-8.4-4-5.4-22.2z"/><path fill-rule="evenodd" class="g" d="m118.3 29.6c0.5 0 3.8 1.1 4.2 1.5 0.4 0.4 2.3 1.3 2.8 2.5 0.4 1.2 0.8 2.1 0.8 3.4 0 1.1 0.1 4.3 0 5.6-0.1 1-1 4.2-1.3 4.6-0.3 0.3-2 2.1-2.3 1.7-0.3-0.3-0.5-1.6-0.1-3.3 0.5-1.6 1.5-6.3 0.8-9.5-0.3-1.6-0.3-1.6-1.4-3.1-1.1-1.5-4.5-2.2-4.5-2.4-0.1-0.5 0.4-1.1 1-1z"/><path fill-rule="evenodd" class="h" d="m107.3 30q3.7-5.4 6.2-8.4c2.4-3.1 3.7-5 4.8-5.4 0.5-0.2 2.7-0.3 4.4-0.1q1.4 0.2 4.2 0.7c0.1 0 0.2 0.2 0.2 0.3q0 0.1-0.1 0.1-9 3-10.1 3.5c-1.2 0.6-3.9 2.4-9.1 9.2q-0.3 0.4-0.5 0.1z"/><path fill-rule="evenodd" class="i" d="m98.4 29.5c3.5-1.7 10.6-3 12.1-3 1.4 0.1 8.9 3.7 9.5 4.2 2 1.7 3.2 3.1 3.3 10.2 0.2 7.1-2.8 20.9-4.4 21.4-0.2 0-1.9 0.9-2.7 0.7q-3.1-0.9-20-9.6c-0.5-0.2-0.8-0.6-1-1.1l-4.6-16.4c-0.2-0.8 0.1-1.6 0.7-2.1q3.5-2.5 7.1-4.3z"/><path fill-rule="evenodd" class="e" d="m106.2 27.3q-5.5 1.7-7 2.6-1.5 0.8-2.6 2.9l-0.2 4-5.8 0.3 0.5-2.5q-0.5-0.1 0-0.6c2.2-1.6 5.5-3.5 6.7-4.1 1-0.5 2.8-1.4 4.8-1.9q1.1-0.4 3.6-0.7z"/><path fill-rule="evenodd" class="f" d="m90.1 33.9c0.4-0.5 5.5-1.4 6.3-1.2 0.8 0.2 9.4 7.4 9.9 8.4q0.4 1 1 17.8l0.4 0.3q-1.2 1.1-1.4 1.1c-8.7-1.6-12.4-4.3-13.2-5.4-1.6-3.1-4.4-16.6-4-17.8 0.4-1.2 0.6-2.8 1-3.2z"/><path fill-rule="evenodd" class="j" d="m95.9 31.6q-0.9-6.5-1.1-10.5c-0.3-3.9-0.5-6.1 0-7.2 0.2-0.5 1.8-2.1 3.1-3 1.4-0.9 3.9-2.6 4.2-2.4 0.3 0.3-4.1 6.3-4.6 7.5-0.5 1.2-2 6.6-1.3 15.2q0 0.4-0.3 0.4z"/><path fill-rule="evenodd" class="k" d="m90.8 35.1c-0.6 0.2-0.7 1-0.4 1.3 0.2 0.2 2.6-0.7 4.3 0 1.8 0.8 3.5 2.7 4.6 3.9 2.3 2.3 2.9 4.8 3.3 6.4 0.5 1.7 1 4.5 1.5 4.6 0.4 0.2 0.9-0.9 1-1.3 0.1-0.5-0.4-6.9-0.9-7.8-0.6-1.1-2.3-2.5-3.1-3.3-1-0.9-2.1-2-3.1-2.8-1.4-1.1-2.2-1.7-2.8-1.9-0.5-0.1-3.9 0.7-4.4 0.9z"/><g style="opacity:.4"><path fill-rule="evenodd" class="l" d="m1.3 8.7q3 0 90.6 52.2-3.8 20-7.8 23.8c-1 0.8-33.3 3-41-1.9-7.7-5-25.7-41.9-34.2-56.8-8.4-14.9-10.6-17.3-7.6-17.3z"/><path fill-rule="evenodd" class="m" d="m85.8 79.3l1.1 0.9c0.3 0.3 0.3 0.8 0.1 1.1q-9.3 12-12.9 16.2c-7.5 8.5-13.2 13.3-14.6 14.2q-3.1 2-35.7-2.6c-0.4 0-0.7-0.5-0.7-0.9 0.1-0.3 0.2-0.6 0.5-0.7q22.3-9.8 31.9-14.6 10.1-5.1 29.4-13.8c0.3-0.1 0.7-0.1 0.9 0.2z"/></g><path fill-rule="evenodd" class="f" d="m103.1 67.2q7.8-2.6 8.8-2.2 1 0.4 10.1 10.8c0 0.1 0 0.2-0.1 0.3 0 0-0.1 0-0.2 0l-11.1-8-7.7 0.2c-0.1 0-0.2-0.1-0.2-0.2q0-0.1 0-0.1l0.3-0.7q0-0.1 0.1-0.1z"/><path fill-rule="evenodd" class="f" d="m100 75.8q7.8-2.6 8.8-2.2 0.9 0.4 8.4 5.6c0.1 0.1 0.1 0.2 0.1 0.3q-0.1 0.1-0.3 0.1-8.4-3.2-9.3-3.4-0.8-0.2-7.9 0.6c-0.2 0-0.3 0-0.3-0.2q0 0 0-0.1l0.3-0.6q0.1-0.1 0.2-0.1z"/><path fill-rule="evenodd" class="f" d="m97.4 83.7q7.3-3.8 8.3-3.4 1 0.3 2.8 6.5c0 0.1-0.1 0.2-0.2 0.3q-0.1 0-0.2-0.1-2.8-3.8-3-3.9-0.2-0.2-7.9 1.6c-0.1 0.1-0.2 0-0.2-0.1q-0.1-0.1 0-0.1l0.3-0.7q0-0.1 0.1-0.1z"/><path fill-rule="evenodd" class="c" d="m91.3 64.5q0.4-2.2 0.5-3.1c0-0.3-0.1-0.5-0.3-0.7q-33.5-19.9-45.8-27.1c-10.4-6.1-18.5-10.8-24.5-14.2q-13.2-7.6-15.9-8.9-2.6-1.4-3.3-1.6c-0.7-0.3-1.2-0.3-1.7 0-0.2 0.1-0.2 0.1-0.3 0.3q1.4-0.3 2.2 0.2c34.7 19.4 59 34.1 72.8 43 9 5.8 12.1 9.4 12.8 10.6 0.6 1.2 1.2 3 1.2 3.8 0 0.4 0 1.9 0.3 4.4 0 0.1 0.1 0.2 0.3 0.1q0.1 0 0.1-0.1 1.1-4.2 1.6-6.7z"/><path fill-rule="evenodd" class="c" d="m86 79.5c-0.3-0.4-0.8-0.6-1.3-0.4l-61.1 28.4q-0.4 0.2-0.4 0.5l0.5-0.1q39.6-18.2 50.2-23 9.7-4.4 10.2-4.5 1.8-0.2 2.1-0.3 0.5-0.1 0.1-0.4z"/></svg>