<svg xmlns="http://www.w3.org/2000/svg" width="230" height="220"  viewBox="0 0 230 220">
<g><path d="M 155.5,22.5 C 170.167,22.5 184.833,22.5 199.5,22.5C 199.5,32.1667 199.5,41.8333 199.5,51.5C 206.5,51.5 213.5,51.5 220.5,51.5C 220.5,62.1667 220.5,72.8333 220.5,83.5C 213.5,83.5 206.5,83.5 199.5,83.5C 199.054,101.556 199.554,119.556 201,137.5C 201.5,138 202,138.5 202.5,139C 206.89,139.772 211.223,139.606 215.5,138.5C 218.595,148.975 220.929,159.641 222.5,170.5C 210.324,173.3 197.991,174.133 185.5,173C 167.394,170.228 157.561,159.728 156,141.5C 155.5,122.17 155.333,102.836 155.5,83.5C 150.5,83.5 145.5,83.5 140.5,83.5C 140.5,72.8333 140.5,62.1667 140.5,51.5C 145.5,51.5 150.5,51.5 155.5,51.5C 155.5,41.8333 155.5,32.1667 155.5,22.5 Z"/></g>
<g><path d="M 7.5,51.5 C 22.5,51.5 37.5,51.5 52.5,51.5C 52.3334,76.5022 52.5,101.502 53,126.5C 58.5069,137.669 67.0069,140.503 78.5,135C 81.8691,132.635 84.0357,129.468 85,125.5C 85.5,100.836 85.6666,76.1689 85.5,51.5C 100.167,51.5 114.833,51.5 129.5,51.5C 129.5,91.5 129.5,131.5 129.5,171.5C 115.5,171.5 101.5,171.5 87.5,171.5C 87.6663,164.492 87.4996,157.492 87,150.5C 81.6885,163.129 72.1885,170.629 58.5,173C 26.675,175.175 9.84162,160.341 8,128.5C 7.50003,102.835 7.33336,77.1688 7.5,51.5 Z"/></g>
</svg>
